<svg id="Layer_1" data-name="Layer 1" xmlns="http://www.w3.org/2000/svg" viewBox="0 0 80 80"><defs><style>.cls-1{fill:#00204a;}</style></defs><title>At-Dark</title><path class="cls-1" d="M40.24,32.82a7,7,0,1,0,6.95,7.11,7,7,0,0,0-6.95-7.11Zm0,0"/><path class="cls-1" d="M40.31,0A39.9,39.9,0,0,0,0,39.38C-.25,61.35,17.41,79.74,39.38,80A40.43,40.43,0,0,0,80,40.31C80.25,18.34,62.28.26,40.31,0ZM56.43,51.76a9.38,9.38,0,0,1-7.62-4.09,11.72,11.72,0,1,1-1.51-17v-.07a2.34,2.34,0,1,1,4.68.06l-.13,11.72a4.69,4.69,0,1,0,9.37.11C61.4,26.75,51.11,18.88,40.4,18.76a21.09,21.09,0,1,0,12.38,38,2.34,2.34,0,0,1,2.82,3.74,25.54,25.54,0,0,1-15.74,5.14,25.78,25.78,0,1,1,.6-51.56c12.95.15,25.66,9.85,25.45,28.42a9.39,9.39,0,0,1-9.48,9.27Zm0,0"/></svg>