<svg id="Layer_1" data-name="Layer 1" xmlns="http://www.w3.org/2000/svg" viewBox="0 0 80 80"><defs><style>.cls-1{fill:#d9faff;}</style></defs><title>At-Light</title><path class="cls-1" d="M40.16,32.81a7,7,0,1,0,7,7,7,7,0,0,0-7-7Zm0,0"/><path class="cls-1" d="M39.84,0A39.88,39.88,0,0,0,0,39.84C0,61.81,17.87,80,39.84,80A40.43,40.43,0,0,0,80,39.84C80,17.87,61.81,0,39.84,0ZM56.56,51.56a9.38,9.38,0,0,1-7.66-4,11.67,11.67,0,0,1-20.46-7.72,11.65,11.65,0,0,1,18.75-9.31v-.06a2.35,2.35,0,1,1,4.69,0V42.19a4.69,4.69,0,0,0,9.37,0c0-15.69-10.38-23.44-21.09-23.44a21.1,21.1,0,1,0,0,42.19A20.84,20.84,0,0,0,53,56.59a2.34,2.34,0,0,1,2.85,3.72,25.46,25.46,0,0,1-15.67,5.31,25.78,25.78,0,1,1,0-51.56c13,0,25.78,9.55,25.78,28.13a9.38,9.38,0,0,1-9.38,9.37Zm0,0"/></svg>