<svg id="Layer_1" data-name="Layer 1" xmlns="http://www.w3.org/2000/svg" viewBox="0 0 80 80"><defs><style>.cls-1{fill:#00204a;}</style></defs><title>Facebook-Dark</title><path class="cls-1" d="M46.45,79.48l-1,.15,1-.15Zm0,0"/><path class="cls-1" d="M47.25,79.34l-.48.09.48-.09Zm0,0"/><path class="cls-1" d="M44.55,79.74l-1.17.12,1.17-.12Zm0,0"/><path class="cls-1" d="M45.32,79.65l-.56.07.56-.07Zm0,0"/><path class="cls-1" d="M48.34,79.13l-.42.09.42-.09Zm0,0"/><path class="cls-1" d="M51,78.46l-.34.09.34-.09Zm0,0"/><path class="cls-1" d="M50.22,78.68l-.37.09.37-.09Zm0,0"/><path class="cls-1" d="M49.15,79l-.39.08.39-.08Zm0,0"/><path class="cls-1" d="M43.36,79.86l-.63,0,.63,0Zm0,0"/><path class="cls-1" d="M80,40A40,40,0,1,0,40,80h.7V48.85H32.11v-10H40.7V31.47c0-8.55,5.22-13.2,12.85-13.2a71.31,71.31,0,0,1,7.7.39v8.93H56c-4.15,0-5,2-5,4.87v6.38H61l-1.29,10H51v29.6A40,40,0,0,0,80,40Zm0,0"/><path class="cls-1" d="M42.64,79.91c-.41,0-.83,0-1.25.06.42,0,.84,0,1.25-.06Zm0,0"/><path class="cls-1" d="M41.37,80l-.67,0,.67,0Zm0,0"/></svg>