<svg id="Layer_1" data-name="Layer 1" xmlns="http://www.w3.org/2000/svg" viewBox="0 0 80 80"><defs><style>.cls-1{fill:#d9faff;}</style></defs><title>House-Light</title><rect class="cls-1" x="28.57" y="35.71" width="2.86" height="5.71"/><rect class="cls-1" x="48.57" y="35.71" width="2.86" height="5.71"/><rect class="cls-1" x="35.71" y="52.86" width="8.57" height="10"/><path class="cls-1" d="M57.14,18.57H54.29v4l2.85,1.12Zm0,0"/><path class="cls-1" d="M40,0A40,40,0,1,0,80,40,40,40,0,0,0,40,0ZM67.14,32.86a1.43,1.43,0,0,1-1.43,1.43,1.49,1.49,0,0,1-.51-.1l-3.77-1.47V64.29A1.43,1.43,0,0,1,60,65.71H20a1.43,1.43,0,0,1-1.43-1.42V32.72L14.8,34.19a1.42,1.42,0,0,1-1.94-1.33V28.57a1.42,1.42,0,0,1,.91-1.33l25.71-10a1.44,1.44,0,0,1,1,0l10.91,4.24V17.14a1.43,1.43,0,0,1,1.43-1.43h5.71A1.43,1.43,0,0,1,60,17.14v7.68l6.23,2.43a1.41,1.41,0,0,1,.91,1.32Zm0,0"/><path class="cls-1" d="M21.43,31.61V62.86H32.86V51.43A1.43,1.43,0,0,1,34.29,50H45.71a1.43,1.43,0,0,1,1.43,1.43V62.86H58.57V31.61L40,24.39ZM34.29,42.86a1.43,1.43,0,0,1-1.43,1.43H27.14a1.43,1.43,0,0,1-1.43-1.43V34.29a1.43,1.43,0,0,1,1.43-1.43h5.72a1.43,1.43,0,0,1,1.43,1.43Zm11.42-8.57a1.43,1.43,0,0,1,1.43-1.43h5.72a1.43,1.43,0,0,1,1.43,1.43v8.57a1.43,1.43,0,0,1-1.43,1.43H47.14a1.43,1.43,0,0,1-1.43-1.43Zm0,0"/><path class="cls-1" d="M15.71,29.55v1.22l23.77-9.24a1.44,1.44,0,0,1,1,0l23.77,9.24V29.55L40,20.1Zm0,0"/></svg>