<svg id="Layer_1" data-name="Layer 1" xmlns="http://www.w3.org/2000/svg" viewBox="0 0 80 80"><defs><style>.cls-1{fill:#d9faff;}</style></defs><title>Instagram-Light</title><path class="cls-1" d="M47.66,40A7.66,7.66,0,1,1,40,32.34,7.66,7.66,0,0,1,47.66,40Zm0,0"/><path class="cls-1" d="M57.91,26.45a7.63,7.63,0,0,0-4.36-4.36,13.09,13.09,0,0,0-4.27-.79c-2.42-.11-3.15-.13-9.28-.13s-6.86,0-9.28.13a13.09,13.09,0,0,0-4.27.79,7.63,7.63,0,0,0-4.36,4.36,13.09,13.09,0,0,0-.79,4.27c-.11,2.42-.13,3.15-.13,9.28s0,6.86.13,9.28a13.09,13.09,0,0,0,.79,4.27,7.63,7.63,0,0,0,4.36,4.36,13.09,13.09,0,0,0,4.27.79c2.42.11,3.15.13,9.28.13s6.86,0,9.28-.13a13.09,13.09,0,0,0,4.27-.79,7.67,7.67,0,0,0,4.36-4.36,13.09,13.09,0,0,0,.79-4.27c.11-2.42.13-3.15.13-9.28s0-6.86-.13-9.28a13.09,13.09,0,0,0-.79-4.27ZM40,51.79A11.79,11.79,0,1,1,51.79,40,11.8,11.8,0,0,1,40,51.79ZM52.26,30.5A2.76,2.76,0,1,1,55,27.74a2.77,2.77,0,0,1-2.76,2.76Zm0,0"/><path class="cls-1" d="M40,0A40,40,0,1,0,80,40,40,40,0,0,0,40,0ZM62.83,49.47a16.86,16.86,0,0,1-1.07,5.58,11.73,11.73,0,0,1-6.71,6.71,16.86,16.86,0,0,1-5.58,1.07C47,62.94,46.24,63,40,63s-7,0-9.47-.14A16.74,16.74,0,0,1,25,61.76a11.77,11.77,0,0,1-6.72-6.71,16.86,16.86,0,0,1-1.07-5.58C17.06,47,17,46.24,17,40s0-7,.14-9.47A16.86,16.86,0,0,1,18.24,25,11.79,11.79,0,0,1,25,18.24a16.86,16.86,0,0,1,5.58-1.07C33,17.06,33.76,17,40,17s7,0,9.47.14a16.86,16.86,0,0,1,5.58,1.07A11.79,11.79,0,0,1,61.76,25a16.86,16.86,0,0,1,1.07,5.58C62.94,33,63,33.76,63,40s0,7-.14,9.47Zm0,0"/></svg>