<svg id="Layer_1" data-name="Layer 1" xmlns="http://www.w3.org/2000/svg" viewBox="0 0 80 80"><defs><style>.cls-1{fill:#00204a;}</style></defs><title>Snapchat-Dark</title><path class="cls-1" d="M40,0A40,40,0,1,0,80,40,40,40,0,0,0,40,0ZM64,52.91c-.29.68-1.59,1.63-6.12,2.33-.37.06-.51.54-.73,1.55-.08.37-.16.73-.28,1.11a.59.59,0,0,1-.64.48h-.06a5.93,5.93,0,0,1-1-.12A13.59,13.59,0,0,0,52.39,58a12,12,0,0,0-2,.16A9.59,9.59,0,0,0,46.69,60c-1.77,1.26-3.6,2.55-6.46,2.55h-.61c-2.86,0-4.69-1.29-6.46-2.55a9.59,9.59,0,0,0-3.74-1.91,12.16,12.16,0,0,0-2-.16,13.43,13.43,0,0,0-2.72.31,5.72,5.72,0,0,1-1,.14.64.64,0,0,1-.71-.5c-.11-.39-.19-.76-.27-1.12-.2-.93-.35-1.5-.73-1.56-4.53-.69-5.83-1.65-6.12-2.33a1,1,0,0,1-.07-.29.51.51,0,0,1,.43-.53c7-1.14,10.08-8.26,10.21-8.56v0a2.65,2.65,0,0,0,.25-2.23c-.47-1.12-2-1.62-3.07-1.94L23,39.1c-2-.82-2.23-1.65-2.14-2.08a1.94,1.94,0,0,1,1.89-1.23,1.4,1.4,0,0,1,.56.11,5.93,5.93,0,0,0,2.48.66,2,2,0,0,0,1.48-.48c0-.47,0-1-.08-1.47-.21-3.29-.47-7.38.57-9.72a12.61,12.61,0,0,1,11.7-7.54h1a12.64,12.64,0,0,1,11.72,7.55c1,2.34.78,6.43.57,9.72v.14c0,.46,0,.91-.08,1.33a2,2,0,0,0,1.35.47h0a6,6,0,0,0,2.33-.65,1.76,1.76,0,0,1,.73-.14,2.32,2.32,0,0,1,.84.16h0A1.52,1.52,0,0,1,59,37.18c0,.48-.36,1.2-2.17,1.92l-.68.23c-1,.32-2.59.82-3.07,1.94a2.68,2.68,0,0,0,.25,2.23l0,0c.12.3,3.24,7.41,10.21,8.56a.51.51,0,0,1,.43.53,1,1,0,0,1-.07.29Zm0,0"/></svg>