<svg id="Layer_1" data-name="Layer 1" xmlns="http://www.w3.org/2000/svg" viewBox="0 0 80 80"><defs><style>.cls-1{fill:#d9faff;}</style></defs><title>Twitter-Light</title><path class="cls-1" d="M40,0A40,40,0,1,0,80,40,40,40,0,0,0,40,0ZM58.26,31.19c0,.39,0,.79,0,1.18,0,12.14-9.23,26.13-26.12,26.13h0a26,26,0,0,1-14.08-4.13,17.64,17.64,0,0,0,2.19.13,18.46,18.46,0,0,0,11.41-3.93,9.2,9.2,0,0,1-8.58-6.38,9,9,0,0,0,1.73.17A8.84,8.84,0,0,0,27.26,44a9.18,9.18,0,0,1-7.37-9v-.12a9.14,9.14,0,0,0,4.16,1.15,9.2,9.2,0,0,1-2.84-12.26A26.06,26.06,0,0,0,40.13,33.4a9.56,9.56,0,0,1-.24-2.09A9.19,9.19,0,0,1,55.78,25a18.46,18.46,0,0,0,5.83-2.23,9.24,9.24,0,0,1-4,5.08,18.2,18.2,0,0,0,5.27-1.45,18.67,18.67,0,0,1-4.58,4.76Zm0,0"/></svg>